<?xml version="1.0" encoding="utf-8"?>
<!-- Generator: Adobe Illustrator 26.2.1, SVG Export Plug-In . SVG Version: 6.00 Build 0)  -->
<svg version="1.1" id="Layer_1" xmlns="http://www.w3.org/2000/svg" xmlns:xlink="http://www.w3.org/1999/xlink" x="0px" y="0px"
	 viewBox="0 0 736 734.3" style="enable-background:new 0 0 736 734.3;" xml:space="preserve">
<style type="text/css">
	.st0{fill:#9BBDE3;}
</style>
<g>
	<path d="M596,465c3.3,2.8,6,4.8,8.3,7.2c33.5,33.4,67,66.9,100.4,100.4c13.6,13.7,13.6,28.2,0,41.9c-29.7,29.7-59.4,59.4-89.1,89.1
		c-13.2,13.2-27.9,13.2-41.2-0.1c-34-33.9-67.9-67.9-101.8-101.8c-2-2-3.6-4.4-5.9-7.2c-1.9,2.8-2.9,4.3-3.8,5.8
		c-24,39.6-48,79.2-72,118.8c-4.6,7.6-10.3,13.6-19.4,14.9c-13.9,2.1-25.1-4.6-29.6-18c-16.6-50.4-33.2-100.8-49.7-151.2
		c-38.9-118.5-77.6-237.1-116.9-355.6c-6.3-19,4.6-33.9,17.1-36.1c5.5-1,11.8-0.7,17.1,1c41.4,13.2,82.6,26.8,123.8,40.4
		c90.4,29.7,180.8,59.3,271.2,89c37.3,12.2,74.6,24.5,111.9,36.8c16.3,5.4,24.2,21.6,16.8,36c-2.6,5-7.3,9.6-12.2,12.6
		C681.7,413.1,642,437,602.4,461C600.7,462,599.1,463.1,596,465z"/>
	<path class="st0" d="M66.8,247.8c-15.8,0-31.6,0-47.4,0C7.3,247.8,0.1,241.2,0,230c-0.1-11.6,6.9-18.5,19.2-18.6
		c25.5-0.1,50.9,0,76.4,0c6.7,0,13.3-0.1,20,0c11.5,0.2,18.9,7.4,18.9,18.2c0.1,10.9-7.6,18.2-19.3,18.2
		C99.1,247.9,83,247.8,66.8,247.8z"/>
	<path class="st0" d="M63.7,377.1c1-2,2.1-6.5,4.9-9.3c21-21.4,42.1-42.7,63.5-63.7c7.6-7.5,19.1-6.9,26,0.5
		c6.8,7.2,6.5,18.3-0.8,25.6c-20.6,20.7-41.2,41.3-61.8,61.9c-5.7,5.7-12.5,7.8-20,4.5C68.2,393.4,64.1,387.6,63.7,377.1z"/>
	<path class="st0" d="M399.2,82.5c-2.1,4-3.5,8.7-6.6,11.8c-20.6,21.1-41.5,41.9-62.5,62.6c-7.5,7.4-18,7.2-25.4-0.2
		c-7.5-7.4-7.9-17.8-0.4-25.4c20.7-21,41.6-41.8,62.5-62.6c5.7-5.7,12.7-7.1,20.2-4c6.8,2.8,10.8,9.3,10.8,17
		C398.4,82.1,398.8,82.3,399.2,82.5z"/>
	<path class="st0" d="M152.9,135.5c-0.3,7.9-4.4,13.5-11.4,16.8c-6.9,3.3-13.6,2.1-18.9-3.2c-18.6-18.4-37.2-36.9-55.5-55.5
		c-6.8-6.9-6.2-18.1,0.5-24.8c6.9-6.9,17.5-7.4,24.9-0.9c5.3,4.8,10.2,10,15.3,15.1c13,13,25.9,25.9,38.9,38.9
		C150.5,125.6,153.2,129.9,152.9,135.5z"/>
	<path class="st0" d="M212.1,56c0-12.2,0-24.3,0-36.5c0-11.7,7.4-19.5,18.1-19.5c10.8,0,18.4,7.8,18.4,19.3c0.1,24.5,0.1,49,0,73.4
		c-0.1,13.7-11.2,21.8-24.1,18.1c-7.7-2.2-12.4-8.6-12.4-17.3C212,81,212.1,68.5,212.1,56z"/>
</g>
</svg>
