<?xml version="1.0" encoding="utf-8"?>
<!-- Generator: Adobe Illustrator 26.2.1, SVG Export Plug-In . SVG Version: 6.00 Build 0)  -->
<svg version="1.1" id="glass" xmlns="http://www.w3.org/2000/svg" xmlns:xlink="http://www.w3.org/1999/xlink" x="0px" y="0px"
	 viewBox="0 0 1263.2 1279.5" style="enable-background:new 0 0 1263.2 1279.5;" xml:space="preserve">
<style type="text/css">
	.st0{fill:#FFFFFF;}
	.st1{fill:#C2C2C2;}
</style>
<path d="M420.2,0c8.9,1.3,17.8,2.2,26.5,4.1c19.3,4,39,7.3,57.7,13.2c20,6.3,39.6,14.6,58.7,23.3c21.3,9.7,41,22.6,59.7,36.6
	c23.5,17.6,44.8,37.6,63.7,60c23.6,28,43,58.5,58.1,92c15.7,34.9,25.9,71.2,31,108.9c5.5,40.3,4.3,80.4-2.9,120.4
	c-5.7,31.4-15.1,61.6-28.2,90.7c-13.7,30.5-31.2,58.6-52.5,85.2c6,6.2,12,12.4,18,18.5c16,16.2,31.9,32.4,48,48.4
	c1.6,1.5,4.2,2.7,6.4,2.7c4.8,0.2,9.7-0.2,14.4-0.8c4-0.5,6.8,0.8,9.6,3.6c20,20.5,40,40.9,60.1,61.3c24.9,25.2,49.8,50.2,74.7,75.4
	c24.7,25,49.3,50.2,74,75.3c29.2,29.6,58.5,59.1,87.7,88.6c24.7,25,49.3,50,74,75c25.3,25.6,50.7,51.3,76,76.9
	c6.1,6.1,11.8,12.6,18.2,18.3c4.9,4.4,5.8,10.2,7.4,15.9c0.8,2.8,1.6,5.7,2.5,8.5c0,8,0,16,0,24c-7.7,19.8-21.4,34.6-38.9,46
	c-12.8,8.3-27,8.4-41.5,6.5c-0.2,0-0.3-0.1-0.5-0.1c-13.7,0-23-7.5-32-17.1c-23.3-24.4-47.4-48-71.1-72c-21.7-22-43.2-44.1-64.9-66
	c-31.5-31.9-63.1-63.7-94.6-95.6c-28.6-28.9-57.1-57.7-85.7-86.6c-28.7-29.1-57.4-58.2-86.2-87.2c-20.1-20.3-40.2-40.5-60.2-60.9
	c-1.1-1.1-2.2-2.8-2.1-4.2c1.6-15.8-5.6-27-17-37.5c-16.6-15.3-31.7-32.1-47.7-48.5c-7.9,5.3-15.5,10.5-23.3,15.5
	c-33.9,21.7-70.4,37.6-109.2,47.5c-45.7,11.7-92,15.6-139.2,10.5c-34.7-3.7-68.2-11.6-100.6-24.1c-30.4-11.7-58.8-27.1-85.3-46.1
	c-26.9-19.3-51-41.5-72.2-66.9c-23.2-27.6-42.3-57.9-56.9-90.9c-9.3-20.9-16.7-42.3-22.3-64.4C2.3,445.9-1.6,407.3,0.6,368.2
	c2.1-36.4,8.9-71.8,20.9-106.4c10.4-29.8,24-58,41.1-84.5C75,158,89.2,140,104.9,123.2c18.9-20.2,39.7-38.3,62.4-54.1
	c22.8-15.9,47.1-29.2,72.8-39.9c28-11.6,57.1-19.8,87.1-24.7c9.4-1.5,18.8-2.3,28.2-3.5c1.6-0.2,3.2-0.7,4.8-1.1
	C380.2,0,400.2,0,420.2,0z M389.7,749.4C589.2,749.2,750,588.3,750,388.9c0-199-160.9-359.8-359.4-360.1
	C189.8,28.5,29,189.7,29.2,390.4C29.4,588.5,191.2,749.6,389.7,749.4z M1244.4,1212.1c-153.7-155.3-307.9-311-461.3-466.1
	c-7.3,7-14.2,13.5-21.4,20.3c154.2,155.8,308.2,311.4,462.2,466.9C1230.8,1226.1,1237.4,1219.4,1244.4,1212.1z M643,704.4
	c0.6,0.8,1.1,1.6,1.7,2.3c17.3,17.7,34.8,35.3,51.9,53.2c3.7,3.8,6.4,4.9,11.2,1.8c7.5-4.9,14.5-10.1,20.9-17.4
	c-20-19.5-39.6-38.6-59.1-57.7C661,692.4,652,698.4,643,704.4z M778.2,710.9c-7.7-1-8.6-0.4-11.4,6.6c-1.8,4.4-3.5,9.2-6.3,12.9
	c-14.6,19.3-30.8,36.9-53.1,47.7c-8.3,4-8.2,4.3-15.6-2c0.3,4.2,0.5,7.7,0.8,11.7c11.4-2.4,22.2-5.5,31.1-12.3
	C746.7,758.2,767.8,739.1,778.2,710.9z M694.3,658.9c-0.9,2.3-6.9,3.3-2.2,8c14.7,14.9,29.4,29.7,44,44.7c3.8,3.9,7.1,8.2,11.2,13.1
	c2.3-4.3,3.6-6.5,5.2-9.5C733,696.4,713.7,677.7,694.3,658.9z M633.8,694.6c1.7,3.8,3.9,4.5,7.2,2.3c1.5-1,3.2-1.7,4.7-2.7
	c6.3-4.2,12.5-8.5,19.2-13.1c-1.8-2-3-3.3-4-4.4C651.7,682.8,642.9,688.6,633.8,694.6z M684.6,659c1.7-2.3,3.3-4.3,4.9-6.5
	c-1.3-1.4-2.5-2.6-3.7-3.8C680.1,654,680.1,654.6,684.6,659z"/>
<path class="st0" d="M389.7,749.4c-198.4,0.2-360.3-160.9-360.5-359C29,189.7,189.8,28.5,390.6,28.8
	C589.1,29.1,749.9,189.9,750,388.9C750,588.3,589.2,749.2,389.7,749.4z M81.2,353.4c28.4-63.6,56.7-126.8,85.1-190.2
	c-2.4-1-4.3-1.7-6.3-2.5c-0.6,0.8-1.1,1.3-1.4,1.9c-13.8,30.7-27.5,61.5-41.3,92.2c-13.5,30.1-27,60.3-40.5,90.4
	C74.3,351.3,74.2,351.3,81.2,353.4z M170.6,200.1c-3.1-0.8-5.6-4.9-8.1,0.2c-4.9,10.2-9.8,20.4-14.6,30.5
	c-14.3,30.1-28.7,60.2-43,90.2c-2.6,5.5-5.2,11-8,16.9c2.2,1.1,4,1.9,6.4,3C125.6,294,147.9,247.4,170.6,200.1z"/>
<path class="st0" d="M1244.4,1212.1c-7.1,7.3-13.6,14-20.5,21.1c-153.9-155.5-308-311.1-462.2-466.9c7.1-6.7,14-13.3,21.4-20.3
	C936.6,901.1,1090.7,1056.8,1244.4,1212.1z"/>
<path class="st0" d="M643,704.4c9.1-6.1,18-12,26.7-17.8c19.6,19.1,39.1,38.2,59.1,57.7c-6.5,7.3-13.4,12.6-20.9,17.4
	c-4.8,3.1-7.6,2-11.2-1.8c-17.2-17.9-34.6-35.5-51.9-53.2C644,706.1,643.5,705.2,643,704.4z"/>
<path class="st0" d="M778.2,710.9c-10.4,28.2-31.5,47.4-54.6,64.6c-9,6.7-19.7,9.9-31.1,12.3c-0.3-4.1-0.5-7.6-0.8-11.7
	c7.4,6.3,7.3,6,15.6,2c22.3-10.8,38.5-28.4,53.1-47.7c2.9-3.7,4.5-8.5,6.3-12.9C769.7,710.5,770.5,709.9,778.2,710.9z"/>
<path class="st0" d="M694.3,658.9c19.4,18.8,38.7,37.6,58.1,56.3c-1.6,2.9-2.8,5.2-5.2,9.5c-4.1-4.9-7.4-9.2-11.2-13.1
	c-14.6-15-29.3-29.8-44-44.7C687.4,662.2,693.4,661.2,694.3,658.9z"/>
<path class="st0" d="M633.8,694.6c9.1-6,17.9-11.9,27.1-18c1,1.1,2.2,2.4,4,4.4c-6.7,4.6-13,8.9-19.2,13.1c-1.5,1-3.2,1.7-4.7,2.7
	C637.7,699.1,635.5,698.4,633.8,694.6z"/>
<path class="st0" d="M684.6,659c-4.6-4.4-4.5-5,1.3-10.3c1.2,1.2,2.4,2.5,3.7,3.8C687.9,654.6,686.4,656.7,684.6,659z"/>
<path class="st1" d="M81.2,353.4c-7.1-2.2-7-2.1-4.3-8.2c13.5-30.1,27-60.3,40.5-90.4c13.8-30.7,27.5-61.5,41.3-92.2
	c0.3-0.6,0.8-1.1,1.4-1.9c1.9,0.8,3.9,1.5,6.3,2.5C138,226.6,109.7,289.9,81.2,353.4z"/>
<path class="st1" d="M170.6,200.1c-22.6,47.3-44.9,94-67.4,140.9c-2.4-1.1-4.1-2-6.4-3c2.8-5.9,5.4-11.4,8-16.9
	c14.3-30.1,28.7-60.2,43-90.2c4.9-10.2,9.7-20.4,14.6-30.5C164.9,195.1,167.5,199.3,170.6,200.1z"/>
</svg>
